<svg width="186" height="65" viewBox="0 0 186 65" fill="none" xmlns="http://www.w3.org/2000/svg">
<g clip-path="url(#clip0_4689_2759)">
<path d="M2 23.6905C2.05475 22.2524 2.41059 17.7642 5.86232 14.489C9.9929 10.5707 15.848 10.4458 19.661 11.7239C20.6793 12.0685 21.5525 12.5081 23.9093 14.1254C27.8092 16.8191 31.5153 19.7786 35.0008 22.9823C40.6123 28.0539 46.0841 33.2937 51.9474 38.0722C53.0122 38.9405 54.2002 40.1915 56.5625 41.7192C58.0183 42.6797 59.6528 43.3424 61.3703 43.6686C63.0879 43.9948 64.8538 43.9778 66.5646 43.6186C66.7452 43.5806 66.9095 43.5399 67.0518 43.5019C66.4546 44.6838 65.7196 45.7922 64.862 46.8043C63.7956 48.1171 62.4451 49.1755 60.9105 49.9012C59.3758 50.6269 57.6962 51.0013 55.9959 50.9967C55.4648 51.0157 50.9401 51.1514 46.8232 48.5545C45.9308 47.9901 44.8879 47.1978 44.1434 46.6225C44.1434 46.6225 42.6598 45.4855 41.1324 44.1532C39.1807 42.4491 33.342 37.0682 25.5517 29.7118C25.5517 29.7118 19.62 24.7027 17.8216 23.2862C14.6244 21.2972 12.0732 20.163 8.24103 20.7518C5.92088 21.1224 3.75569 22.1419 2 23.6905Z" fill="#0A4352"/>
<path d="M32.8047 17.2083C33.1824 16.5896 35.7199 12.5953 40.9208 11.6537C46.3488 10.6769 50.2632 13.8246 50.775 14.2723C51.1911 14.6359 51.7906 15.1542 52.505 15.781C53.8107 16.9261 56.6109 19.3764 59.4714 22.0058C62.3948 24.6895 65.5208 27.1615 68.3512 29.9402C69.1923 30.7435 70.1581 31.4077 71.2117 31.9075C72.9882 32.7704 75.4572 33.389 78.2219 32.4149C77.0858 34.894 75.2205 36.9749 72.8705 38.3846C72.0329 38.8785 69.8759 40.1159 67.0729 40.1538C64.79 40.1837 62.4523 39.565 58.4641 36.439C55.5361 34.2057 52.7446 31.8018 50.1044 29.2401C48.7686 27.9322 47.7175 26.8603 46.5788 25.6854C45.2895 24.353 45.1554 24.1875 44.5449 23.5634C41.2273 20.1606 39.5685 18.4593 37.1406 17.6452C35.7439 17.1916 34.2649 17.0426 32.8047 17.2083Z" fill="#0C7484"/>
<path d="M74.84 27.991C79.1742 27.991 82.6878 24.5079 82.6878 20.2113C82.6878 15.9147 79.1742 12.4316 74.84 12.4316C70.5058 12.4316 66.9922 15.9147 66.9922 20.2113C66.9922 24.5079 70.5058 27.991 74.84 27.991Z" fill="#C9E1E5"/>
<path d="M88.0547 13.6152H90.844L95.0567 26.5614L99.3433 13.6152H102.135L106.419 26.5614L110.632 13.6152H113.424L107.791 30.5802H105.275L100.764 17.0668L96.2036 30.5802H93.6853L88.0547 13.6152Z" fill="#353535"/>
<path d="M115.391 22.0904C115.391 17.3228 119.477 13.3203 124.287 13.3203C126.625 13.3464 128.86 14.2788 130.513 15.9179C132.167 17.557 133.107 19.7725 133.134 22.0904C133.134 26.8581 129.096 30.8849 124.287 30.8849C119.477 30.8849 115.391 26.8581 115.391 22.0904ZM130.566 22.0904C130.566 18.5818 127.7 15.6187 124.287 15.6187C120.873 15.6187 117.991 18.5818 117.991 22.0904C117.991 25.599 120.882 28.6029 124.287 28.6029C127.692 28.6029 130.572 25.6234 130.572 22.0904H130.566Z" fill="#353535"/>
<path d="M145.396 24.4367L149.757 30.5802H146.866L142.681 24.6755H138.742V30.5802H136.227V13.6152H143.439C147.053 13.6152 149.793 15.9136 149.793 19.1508C149.782 21.7694 147.989 23.7692 145.396 24.4367ZM138.742 22.3609H143.078C145.542 22.3609 147.217 21.1507 147.217 19.1508C147.217 17.151 145.547 15.9272 143.078 15.9272H138.742V22.3609Z" fill="#353535"/>
<path d="M152.945 13.6152H158.85C164.382 13.6152 168.321 17.1238 168.321 22.0896C168.321 27.0553 164.382 30.5802 158.85 30.5802H152.945V13.6152ZM159 28.3144C162.964 28.3144 165.728 25.7447 165.728 22.0896C165.728 18.4344 162.964 15.8892 159 15.8892H155.461V28.3144H159Z" fill="#353535"/>
<path d="M170.719 28.1383L172.238 26.2849C173.76 27.7177 175.553 28.6566 177.871 28.6566C180.239 28.6566 181.46 27.4219 181.46 26.0624C181.46 24.456 180.039 23.8373 177.173 23.197C173.683 22.3856 171.362 21.3545 171.362 18.2855C171.362 15.4444 173.853 13.2953 177.291 13.2953C179.609 13.2737 181.847 14.1309 183.548 15.6914L182.1 17.5691C180.655 16.2585 178.936 15.4933 177.192 15.4933C175.276 15.4933 173.927 16.7035 173.927 18.063C173.927 19.645 175.397 20.1877 178.213 20.8552C181.63 21.6448 183.995 22.7818 183.995 25.8209C183.995 28.6864 181.805 30.8599 177.765 30.8599C174.904 30.8518 172.536 29.8722 170.719 28.1383Z" fill="#353535"/>
<path d="M97.6909 47.4999H90.0484L88.6195 50.7181H87.875L93.4974 38.084H94.2392L99.8589 50.7181H99.1171L97.6909 47.4999ZM97.3953 46.8378L93.8697 38.9116L90.3386 46.8378H97.3953Z" fill="#353535"/>
<path d="M102.109 44.392C102.109 40.8427 105.096 37.8633 108.638 37.8633C109.494 37.869 110.339 38.0438 111.126 38.3774C111.913 38.711 112.625 39.1967 113.22 39.8062L112.738 40.2647C112.204 39.7211 111.565 39.2882 110.861 38.9915C110.156 38.6947 109.398 38.54 108.632 38.5362C107.076 38.5617 105.592 39.1898 104.497 40.2861C103.401 41.3824 102.782 42.86 102.772 44.4029C102.772 47.6021 105.443 50.2858 108.632 50.2858C109.4 50.2834 110.159 50.1277 110.865 49.828C111.57 49.5282 112.207 49.0905 112.738 48.541L113.22 49.0186C112.008 50.2314 110.36 50.9192 108.638 50.9316C105.096 50.9316 102.109 47.9467 102.109 44.392Z" fill="#353535"/>
<path d="M124.846 47.4999H117.201L115.789 50.7181H115.047L120.667 38.084H121.408L127.012 50.7181H126.273L124.846 47.4999ZM124.548 46.8378L121.022 38.9116L117.499 46.8378H124.548Z" fill="#353535"/>
<path d="M130.039 38.084H134.402C138.235 38.084 140.931 40.6971 140.931 44.3929C140.931 48.0887 138.235 50.7181 134.402 50.7181H130.039V38.084ZM134.402 50.056C137.835 50.056 140.266 47.7034 140.266 44.3929C140.266 41.0824 137.835 38.7461 134.402 38.7461H130.707V50.056H134.402Z" fill="#353535"/>
<path d="M144.941 38.7461V43.9506H152.058V44.6127H144.941V50.056H152.639V50.7181H144.273V38.084H152.639V38.7461H144.941Z" fill="#353535"/>
<path d="M156.094 38.084H156.762L161.883 47.6301L167.002 38.084H167.67V50.7181H167.002V39.4082L161.883 48.9543L156.762 39.4082V50.7181H156.094V38.084Z" fill="#353535"/>
<path d="M175.623 45.5869L170.422 38.084H171.276L175.951 44.8352L180.627 38.084H181.483L176.282 45.5869V50.7181H175.615L175.623 45.5869Z" fill="#353535"/>
<path d="M88.0547 13.6152H90.844L95.0567 26.5614L99.3433 13.6152H102.135L106.419 26.5614L110.632 13.6152H113.424L107.791 30.5802H105.275L100.764 17.0668L96.2036 30.5802H93.6853L88.0547 13.6152Z" fill="#353535"/>
<path d="M115.391 22.0904C115.391 17.3228 119.477 13.3203 124.287 13.3203C126.625 13.3464 128.86 14.2788 130.513 15.9179C132.167 17.557 133.107 19.7725 133.134 22.0904C133.134 26.8581 129.096 30.8849 124.287 30.8849C119.477 30.8849 115.391 26.8581 115.391 22.0904ZM130.566 22.0904C130.566 18.5818 127.7 15.6187 124.287 15.6187C120.873 15.6187 117.991 18.5818 117.991 22.0904C117.991 25.599 120.882 28.6029 124.287 28.6029C127.692 28.6029 130.572 25.6234 130.572 22.0904H130.566Z" fill="#353535"/>
<path d="M145.396 24.4367L149.757 30.5802H146.866L142.681 24.6755H138.742V30.5802H136.227V13.6152H143.439C147.053 13.6152 149.793 15.9136 149.793 19.1508C149.782 21.7694 147.989 23.7692 145.396 24.4367ZM138.742 22.3609H143.078C145.542 22.3609 147.217 21.1507 147.217 19.1508C147.217 17.151 145.547 15.9272 143.078 15.9272H138.742V22.3609Z" fill="#353535"/>
<path d="M152.945 13.6152H158.85C164.382 13.6152 168.321 17.1238 168.321 22.0896C168.321 27.0553 164.382 30.5802 158.85 30.5802H152.945V13.6152ZM159 28.3144C162.964 28.3144 165.728 25.7447 165.728 22.0896C165.728 18.4344 162.964 15.8892 159 15.8892H155.461V28.3144H159Z" fill="#353535"/>
<path d="M170.719 28.1383L172.238 26.2849C173.76 27.7177 175.553 28.6566 177.871 28.6566C180.239 28.6566 181.46 27.4219 181.46 26.0624C181.46 24.456 180.039 23.8373 177.173 23.197C173.683 22.3856 171.362 21.3545 171.362 18.2855C171.362 15.4444 173.853 13.2953 177.291 13.2953C179.609 13.2737 181.847 14.1309 183.548 15.6914L182.1 17.5691C180.655 16.2585 178.936 15.4933 177.192 15.4933C175.276 15.4933 173.927 16.7035 173.927 18.063C173.927 19.645 175.397 20.1877 178.213 20.8552C181.63 21.6448 183.995 22.7818 183.995 25.8209C183.995 28.6864 181.805 30.8599 177.765 30.8599C174.904 30.8518 172.536 29.8722 170.719 28.1383Z" fill="#353535"/>
<path d="M97.6909 47.4999H90.0484L88.6195 50.7181H87.875L93.4974 38.084H94.2392L99.8589 50.7181H99.1171L97.6909 47.4999ZM97.3953 46.8378L93.8697 38.9116L90.3386 46.8378H97.3953Z" fill="#353535"/>
<path d="M102.109 44.392C102.109 40.8427 105.096 37.8633 108.638 37.8633C109.494 37.869 110.339 38.0438 111.126 38.3774C111.913 38.711 112.625 39.1967 113.22 39.8062L112.738 40.2647C112.204 39.7211 111.565 39.2882 110.861 38.9915C110.156 38.6947 109.398 38.54 108.632 38.5362C107.076 38.5617 105.592 39.1898 104.497 40.2861C103.401 41.3824 102.782 42.86 102.772 44.4029C102.772 47.6021 105.443 50.2858 108.632 50.2858C109.4 50.2834 110.159 50.1277 110.865 49.828C111.57 49.5282 112.207 49.0905 112.738 48.541L113.22 49.0186C112.008 50.2314 110.36 50.9192 108.638 50.9316C105.096 50.9316 102.109 47.9467 102.109 44.392Z" fill="#353535"/>
<path d="M124.846 47.4999H117.201L115.789 50.7181H115.047L120.667 38.084H121.408L127.012 50.7181H126.273L124.846 47.4999ZM124.548 46.8378L121.022 38.9116L117.499 46.8378H124.548Z" fill="#353535"/>
<path d="M130.047 38.084H134.41C138.242 38.084 140.939 40.6971 140.939 44.3929C140.939 48.0887 138.242 50.7181 134.41 50.7181H130.047V38.084ZM134.41 50.056C137.843 50.056 140.273 47.7034 140.273 44.3929C140.273 41.0824 137.843 38.7461 134.41 38.7461H130.715V50.056H134.41Z" fill="#353535"/>
<path d="M144.941 38.7461V43.9506H152.058V44.6127H144.941V50.056H152.639V50.7181H144.273V38.084H152.639V38.7461H144.941Z" fill="#353535"/>
<path d="M156.094 38.084H156.762L161.883 47.6301L167.002 38.084H167.67V50.7181H167.002V39.4082L161.883 48.9543L156.762 39.4082V50.7181H156.094V38.084Z" fill="#353535"/>
<path d="M175.623 45.5869L170.422 38.084H171.276L175.951 44.8352L180.627 38.084H181.483L176.282 45.5869V50.7181H175.615L175.623 45.5869Z" fill="#353535"/>
</g>
<defs>
<clipPath id="clip0_4689_2759">
<rect width="182" height="40" fill="white" transform="translate(2 11)"/>
</clipPath>
</defs>
</svg>
