<?xml version="1.0" encoding="utf-8"?>
<!-- Generator: Adobe Illustrator 24.2.1, SVG Export Plug-In . SVG Version: 6.00 Build 0)  -->
<svg version="1.1" id="Layer_1" xmlns="http://www.w3.org/2000/svg" xmlns:xlink="http://www.w3.org/1999/xlink" x="0px" y="0px"
	 viewBox="0 0 960 560" style="enable-background:new 0 0 960 560;" xml:space="preserve">
<style type="text/css">
	.st0{fill:#E8521D;stroke:#1D1D1B;stroke-width:0.25;stroke-miterlimit:10;}
	.st1{fill:#1D1D1B;}
	.st2{fill:#F8AD1D;stroke:#1D1D1B;stroke-width:0.25;stroke-miterlimit:10;}
	.st3{fill:#4B78BA;stroke:#1D1D1B;stroke-width:0.25;stroke-miterlimit:10;}
	.st4{fill:#232324;}
	.st5{fill:#4B78BA;}
	.st6{fill:#E8521D;}
	.st7{fill:#B34418;}
	.st8{fill:#F18E5C;}
	.st9{fill:#FACDB4;}
	.st10{fill:none;}
	.st11{fill:#F8AD1D;}
	.st12{fill:#F4A27A;}
	.st13{fill:#EC9C80;}
	.st14{fill:#576F95;}
</style>
<g>
	<g>
		<path d="M653.59,171.8l-20.63,0.33c-1.95,0.03-3.65-1.33-4.06-3.24c-2.64-12.31-10.63-19.79-24.22-19.58
			c-11.29,0.18-19.82,5.62-19.63,17.05c0.19,11.83,7.88,17.63,30.53,22.57c31.3,6.65,45.48,20.7,45.85,43.35
			c0.43,26.52-23.75,42.01-51.65,42.45c-31.97,0.51-53.72-12.43-58.69-38.75c-0.47-2.49,1.45-4.82,3.98-4.86l21.04-0.33
			c1.81-0.03,3.43,1.13,3.96,2.86c4.14,13.52,15.53,20.3,28.96,20.09c12.93-0.21,23.07-7.31,22.9-18.12
			c-0.19-11.83-7.69-18.65-28.7-23.21c-29.04-6.48-47.46-16.18-47.88-42.09c-0.42-25.91,22.93-41.59,50.02-42.02
			c31.62-0.5,47.4,15.99,52.18,38.57C658.09,169.38,656.17,171.76,653.59,171.8z"/>
		<path d="M748.67,208.45l0.92,57.1c0.04,2.26-1.77,4.13-4.03,4.17l-20.11,0.32c-2.26,0.04-4.13-1.77-4.16-4.03l-0.86-53.23
			c-0.07-4.49-0.15-9.59-0.65-15.09c-1-11.41-7.49-19.06-21.24-18.85c-13.74,0.42-24.43,12.22-23.95,42.42l0.73,45.47
			c0.04,2.26-1.77,4.13-4.03,4.17l-20.04,0.32c-2.29,0.04-4.17-1.82-4.16-4.11l0.64-242.48c0.01-2.23,1.8-4.05,4.03-4.09l20.07-0.32
			c2.31-0.04,4.2,1.84,4.16,4.15l-1.88,140.95c-0.06,4.14,5.36,5.74,7.57,2.24v0c0.29-0.47,0.68-0.88,1.13-1.2
			c7.5-5.27,15.3-7.31,25.45-7.47c23.19-0.37,36.71,10.84,39.27,29.78C748.24,194.17,748.53,199.68,748.67,208.45z"/>
		<path d="M835.58,221.35l-69.17,1.1c-2.49,0.04-4.39,2.28-3.99,4.74c3.11,19.12,12.93,25.12,25.12,24.92
			c11.01-0.18,19.22-5.88,21.86-15.69c0.48-1.78,2.05-3.05,3.89-3.08l19.68-0.31c2.83-0.04,4.8,2.7,3.96,5.4
			c-6.8,21.8-25.96,33.11-49.69,33.48c-29.95,0.48-53.44-17.72-54.05-55.87c-0.53-33.25,21.03-57.88,54.47-58.41
			c33.44-0.53,51.5,24.48,51.97,54.07c0.03,1.68,0.06,3.61-0.01,5.72C839.55,219.59,837.75,221.32,835.58,221.35z M767.26,204.07
			l38.34-0.61c2.54-0.04,4.49-2.37,3.97-4.86c-2.94-14-10.6-21.36-22.82-21.16c-11.86,0.19-20.43,7.15-23.58,21.75
			C762.62,201.74,764.66,204.11,767.26,204.07z"/>
		<path d="M594.35,348.93l59.61-0.95c2.55-0.04,4.52,2.24,4.11,4.76l-2.29,14.08c-0.32,1.96-2,3.41-3.98,3.44l-57.17,0.91
			c-2.24,0.04-4.03,1.86-4.03,4.1l-0.16,160.62c0,2.24-1.8,4.06-4.03,4.1l-20.14,0.32c-2.28,0.04-4.15-1.8-4.16-4.08L561,294.34
			c-0.01-2.25,1.79-4.08,4.03-4.12l91.97-1.46c2.26-0.04,4.13,1.77,4.16,4.03l0.22,13.83c0.04,2.26-1.77,4.13-4.03,4.17l-63.61,1.01
			c-2.26,0.04-4.07,1.9-4.03,4.17l0.47,28.93C590.22,347.16,592.08,348.97,594.35,348.93z"/>
		<path d="M754.63,381.07l-69.17,1.1c-2.49,0.04-4.39,2.28-3.99,4.74c3.11,19.12,12.93,25.12,25.12,24.92
			c10.98-0.17,18.32-4.03,20.83-13.45c0.48-1.79,2.04-3.08,3.9-3.11l19.67-0.31c2.82-0.04,4.8,2.7,3.96,5.4
			c-6.67,21.49-24.94,30.9-48.66,31.28c-29.95,0.48-53.44-17.72-54.05-55.87c-0.53-33.25,21.03-57.88,54.47-58.41
			s51.5,24.49,51.97,54.07c0.03,1.68,0.06,3.6-0.01,5.72C758.6,379.31,756.8,381.04,754.63,381.07z M686.31,363.79l38.34-0.61
			c2.54-0.04,4.49-2.37,3.97-4.86c-2.94-14-10.6-21.36-22.82-21.16c-11.86,0.19-20.43,7.15-23.58,21.75
			C681.67,361.46,683.71,363.84,686.31,363.79z"/>
		<path d="M836.1,349.58l-20.16,0.32c-1.84,0.03-3.45-1.19-3.99-2.95c-2.48-8.08-7.88-12.57-16.32-12.44
			c-8.41,0.13-12.85,5.1-12.74,11.83c0.13,8.16,6.97,12.34,25.1,16.54c22.46,5.36,35.73,14.13,36.05,34.12
			c0.35,21.83-19.38,32.76-44.41,33.15c-24.62,0.39-42.66-9.21-47.85-30.23c-0.62-2.52,1.35-4.95,3.94-4.99l20.23-0.32
			c1.81-0.03,3.41,1.15,3.96,2.88c3.13,9.76,10.83,14.23,19.82,14.09c9.03-0.14,15.94-4.13,15.81-12.09
			c-0.13-8.36-7.39-12.94-26.34-17.33c-20.4-4.78-34.49-13.33-34.79-32.1c-0.33-20.81,16.7-33.73,42.75-34.15
			c23.73-0.38,38.29,11.41,42.81,28.43C840.68,346.95,838.8,349.53,836.1,349.58z"/>
		<path d="M876.1,387.1c0.06,3.67,0.11,6.73,0.36,9.58c0.9,9.59,4.21,12.9,16.51,12.35c2.3-0.1,4.23,1.73,4.27,4.03l0.31,19.51
			c0.04,2.26-1.76,4.12-4.02,4.16c-4.23,0.07-11.75,0.19-22.65,0.36c-17.94,0.29-20.91-15.29-22.39-30.57
			c-0.49-4.89-0.56-9.58-0.66-15.7l-0.79-49.35c-0.04-2.26-1.9-4.07-4.16-4.03l-7.81,0.12c-2.26,0.04-4.13-1.77-4.16-4.03
			l-0.17-10.37c-0.04-2.26,1.77-4.13,4.03-4.17l7.81-0.12c2.26-0.04,4.07-1.9,4.03-4.16l-0.19-12.77c-0.03-2.26,1.77-4.12,4.03-4.16
			l20.12-0.32c2.27-0.04,4.13,1.77,4.16,4.04l0.19,12.75c0.03,2.27,1.9,4.07,4.16,4.04l14.37-0.23c2.26-0.04,4.13,1.77,4.16,4.03
			l0.17,10.37c0.04,2.26-1.77,4.13-4.03,4.17l-14.37,0.23c-2.26,0.04-4.07,1.9-4.03,4.17L876.1,387.1z"/>
		<path d="M911.04,412.02l0.32,20.07c0.04,2.25-1.75,4.11-4.01,4.16l-32.34,0.74c-2.27,0.05-4.16-1.76-4.19-4.03l-0.32-20.07
			c-0.04-2.25,1.75-4.11,4.01-4.16l32.34-0.74C909.12,407.93,911,409.74,911.04,412.02z"/>
	</g>
	<g>
		<g>
			<g>
				<path class="st0" d="M686,85.87c0,0,20.61,6.12,15.96,25.54C688.76,105.07,687.79,100.66,686,85.87z"/>
				<path class="st0" d="M684.51,86.86c0,0,14.88,15.45,1.18,30.04C677.36,104.91,678.7,100.59,684.51,86.86z"/>
				<path class="st0" d="M681.02,85c0,0,8.22,19.77-9.87,28.42C667.77,99.24,670.6,95.7,681.02,85z"/>
			</g>
			<g>
				<path class="st0" d="M677.61,86.15c0,0-1.4,21.34-21.48,21.16C659.4,93.1,663.51,91.17,677.61,86.15z"/>
				<path class="st0" d="M676.31,84.92c0,0-11.83,17.87-29.19,7.84C657.02,82.01,661.55,82.35,676.31,84.92z"/>
				<path class="st0" d="M677.35,81.13c0,0-17.55,12.37-30.06-3.23C660.44,71.46,664.54,73.41,677.35,81.13z"/>
			</g>
		</g>
		<g>
			<path class="st0" d="M678.36,80.51c0,0-21.25,3.33-25.49-16.18C667.53,64.37,670.33,67.93,678.36,80.51z"/>
			<path class="st0" d="M679.28,78.97c0,0-20.13-7.55-14.11-26.59C677.89,59.63,678.55,64.1,679.28,78.97z"/>
			<path class="st0" d="M683.23,79.16c0,0-16-14.3-3.44-29.87C689,60.63,687.98,65.03,683.23,79.16z"/>
		</g>
		<path class="st0" d="M685.88,79.6c0,0-8-19.86,10.18-28.31C699.29,65.51,696.42,69.02,685.88,79.6z"/>
		<path class="st0" d="M687.59,80.15c0,0,2.91-21.19,22.92-19.61C706.25,74.49,702.01,76.13,687.59,80.15z"/>
		<path class="st0" d="M688.29,84.02c0,0,10.45-18.69,28.52-9.99C707.74,85.48,703.2,85.48,688.29,84.02z"/>
		<path class="st0" d="M689,85.92c0,0,16.16-14.12,30.24,0.11C706.83,93.79,702.55,92.27,689,85.92z"/>
		<path class="st0" d="M689.22,88.21c0,0,20.4-6.8,27.84,11.74C702.59,102.34,699.24,99.29,689.22,88.21z"/>
		<ellipse class="st1" cx="683.3" cy="83.36" rx="11.9" ry="11.83"/>
	</g>
	<g>
		<g>
			<g>
				<path class="st2" d="M603.34,471.64c0,0,20.43,6.69,15.24,25.97C605.56,490.92,604.71,486.48,603.34,471.64z"/>
				<path class="st2" d="M601.82,472.59c0,0,14.44,15.85,0.34,30.07C594.17,490.44,595.63,486.16,601.82,472.59z"/>
				<path class="st2" d="M598.39,470.64c0,0,7.66,19.99-10.66,28.14C584.75,484.5,587.67,481.05,598.39,470.64z"/>
			</g>
			<g>
				<path class="st2" d="M594.95,471.69c0,0-2,21.3-22.06,20.56C576.55,478.14,580.71,476.32,594.95,471.69z"/>
				<path class="st2" d="M593.68,470.42c0,0-12.33,17.53-29.4,7.03C574.48,466.98,579,467.45,593.68,470.42z"/>
				<path class="st2" d="M594.83,466.66c0,0-17.89,11.88-29.96-4.06C578.2,456.53,582.23,458.6,594.83,466.66z"/>
			</g>
		</g>
		<g>
			<path class="st2" d="M597.48,465.3c0,0-21.31,2.94-25.18-16.64C586.95,448.97,589.68,452.58,597.48,465.3z"/>
			<path class="st2" d="M598.43,463.78c0,0-19.99-7.91-13.62-26.84C597.39,444.41,597.97,448.89,598.43,463.78z"/>
			<path class="st2" d="M602.37,464.04c0,0-15.73-14.59-2.89-29.93C608.48,445.62,607.38,450,602.37,464.04z"/>
		</g>
		<path class="st2" d="M605.01,464.53c0,0-7.64-20,10.7-28.12C618.67,450.69,615.74,454.14,605.01,464.53z"/>
		<path class="st2" d="M606.71,465.11c0,0,3.3-21.14,23.28-19.19C625.47,459.79,621.21,461.35,606.71,465.11z"/>
		<path class="st2" d="M607.34,468.99c0,0,10.8-18.5,28.7-9.47C626.76,470.81,622.22,470.72,607.34,468.99z"/>
		<path class="st2" d="M608.01,470.9c0,0,16.41-13.83,30.23,0.66C625.7,479.09,621.45,477.5,608.01,470.9z"/>
		<path class="st2" d="M608.19,473.2c0,0,20.52-6.43,27.62,12.25C621.31,487.56,618.01,484.45,608.19,473.2z"/>
		<ellipse class="st1" cx="600.06" cy="469.84" rx="11.9" ry="11.83"/>
	</g>
	<g>
		<g>
			<g>
				<path class="st3" d="M863.99,422.47c0,0,20.61,6.12,15.96,25.54C866.75,441.67,865.77,437.26,863.99,422.47z"/>
				<path class="st3" d="M862.49,423.45c0,0,14.88,15.45,1.18,30.04C855.34,441.5,856.69,437.19,862.49,423.45z"/>
				<path class="st3" d="M859.01,421.6c0,0,8.22,19.77-9.87,28.42C845.76,435.83,848.59,432.3,859.01,421.6z"/>
			</g>
			<g>
				<path class="st3" d="M855.6,422.74c0,0-1.4,21.34-21.48,21.16C837.38,429.7,841.49,427.77,855.6,422.74z"/>
				<path class="st3" d="M854.29,421.51c0,0-11.83,17.87-29.19,7.84C835,418.61,839.53,418.95,854.29,421.51z"/>
				<path class="st3" d="M855.34,417.72c0,0-17.55,12.37-30.06-3.23C838.43,408.05,842.52,410.01,855.34,417.72z"/>
			</g>
		</g>
		<g>
			<path class="st3" d="M856.35,417.11c0,0-21.25,3.33-25.49-16.18C845.52,400.97,848.32,404.53,856.35,417.11z"/>
			<path class="st3" d="M857.27,415.57c0,0-20.13-7.55-14.11-26.59C855.88,396.22,856.54,400.69,857.27,415.57z"/>
			<path class="st3" d="M861.21,415.75c0,0-16-14.3-3.44-29.87C866.98,397.22,865.97,401.63,861.21,415.75z"/>
		</g>
		<path class="st3" d="M863.86,416.2c0,0-8-19.86,10.18-28.31C877.27,402.11,874.4,405.61,863.86,416.2z"/>
		<path class="st3" d="M865.57,416.75c0,0,2.91-21.19,22.92-19.61C884.23,411.09,880,412.72,865.57,416.75z"/>
		<path class="st3" d="M866.27,420.62c0,0,10.45-18.69,28.52-9.99C885.73,422.08,881.18,422.08,866.27,420.62z"/>
		<path class="st3" d="M866.98,422.52c0,0,16.16-14.12,30.24,0.11C884.81,430.39,880.54,428.87,866.98,422.52z"/>
		<path class="st3" d="M867.2,424.81c0,0,20.4-6.8,27.84,11.74C880.58,438.93,877.23,435.88,867.2,424.81z"/>
		<ellipse class="st1" cx="862.07" cy="419.89" rx="11.9" ry="11.83"/>
	</g>
	<g>
		<path class="st4" d="M340.17,295.14l-49.43,49.5l-46.59-50.17C259.11,287.05,298.02,272.48,340.17,295.14z"/>
		<path class="st5" d="M338.85,139.45l-1.05,56.5c-6.41-0.97-12.75-1.7-19-2.23l1.38-74.4L338.85,139.45z"/>
		<path class="st6" d="M383.07,187.08l-0.36,19.23c-3.38-1.08-6.77-2.07-10.14-3c-8.81-2.46-17.56-4.42-26.2-5.95l0.91-48.82
			L383.07,187.08z"/>
		<path class="st5" d="M410.91,217.05c-6.54-2.92-13.1-5.54-19.64-7.85l0.24-13.04L410.91,217.05z"/>
		<path class="st7" d="M350.2,408.7c-2.74,5.32-6.28,10.81-10.74,16.42l-22.11-23.8c4.25-7.17,6.29-14.11,6.94-20.54
			c0.04-0.48,0.08-0.93,0.11-1.39c1.72,0.88,3.66,1.4,5.72,1.43c7.18,0.13,13.1-5.57,13.24-12.69c0.13-7.14-5.57-13.03-12.76-13.15
			c-3.6-0.06-6.88,1.32-9.27,3.63c-1.82-5.06-4.08-8.99-5.64-11.4l21.01-21.03C346.26,336.27,371.07,368.12,350.2,408.7z"/>
		<path class="st6" d="M311.74,110.24l-1.54,82.84c-12.67-0.75-24.91-0.72-36.54-0.17l1.5-80.85l19.83-19.85L311.74,110.24z"/>
		<path class="st5" d="M266.4,120.84l-1.35,72.58c-7.1,0.52-13.93,1.22-20.44,2.05l1-53.81L266.4,120.84z"/>
		<path class="st8" d="M245.48,283.62c-4.58,2.2-7.27,3.91-7.59,4.12l-53.05-57.15l-0.55-0.58l4.4-14.34l0.02-0.02l32.21,13.38
			C220.91,229.03,240.58,272.99,245.48,283.62z"/>
		<path class="st9" d="M185.15,216.7l-3.45,10.5l-6.72-7.23C177.52,219.1,180.96,217.96,185.15,216.7z"/>
		<path class="st8" d="M401.69,235.86l-54.96,52.69c-3.95-2.47-7.89-4.59-11.79-6.42l24.86-48.82l41.12-11.71l0.02,0l0,0.02
			L401.69,235.86z"/>
		<path class="st9" d="M411.75,226.22l-6.81,6.53l-0.61-9.75c1.84,0.76,3.67,1.54,5.51,2.36
			C410.47,225.63,411.11,225.93,411.75,226.22z"/>
		<path class="st10" d="M223.73,412.77l-1.41,1.42l8.82,8.73l1.41-1.42L223.73,412.77z M219.47,417.03l8.82,8.73l1.43-1.42
			l-8.82-8.73L219.47,417.03z M189.87,314.37l7.06,10.19l1.66-1.14l-7.06-10.19L189.87,314.37z M186.56,316.64l7.06,10.19l1.66-1.14
			l-7.06-10.19L186.56,316.64z M180.11,370.5l12.45,0.22l0.04-2l-12.45-0.22L180.11,370.5z M180.18,366.5l12.45,0.22l0.04-2
			l-12.45-0.22L180.18,366.5z M139.11,369.78l12.45,0.22l0.04-2l-12.45-0.22L139.11,369.78z M139.18,365.77l12.45,0.22l0.04-2
			l-12.45-0.22L139.18,365.77z M140.37,301.88l12.45,0.22l0.04-2l-12.45-0.22L140.37,301.88z M140.44,297.89l12.45,0.22l0.04-2
			l-12.45-0.22L140.44,297.89z M98.39,369.06l12.43,0.22l0.04-2l-12.43-0.22L98.39,369.06z M98.46,365.05l12.43,0.22l0.04-2
			l-12.43-0.22L98.46,365.05z M56.46,368.32l12.45,0.22l0.04-2l-12.45-0.22L56.46,368.32z M56.54,364.31l12.45,0.22l0.04-2
			l-12.45-0.22L56.54,364.31z"/>
		<path class="st4" d="M324.4,379.38c-0.03,0.46-0.07,0.92-0.11,1.39c-0.65,6.43-2.69,13.37-6.94,20.54l-26.83-28.89L304,358.92
			l11.7-11.72c1.56,2.41,3.81,6.34,5.64,11.4c-2.39,2.31-3.9,5.5-3.97,9.06C317.27,372.73,320.14,377.19,324.4,379.38z"/>
		<path class="st11" d="M421.25,255.72l-75.78,68.15c-1.2-1.22-2.3-2.27-3.29-3.18l72.22-72.36L421.25,255.72z"/>
		<path class="st11" d="M452.16,289l-94.88,50.37c-1.92-3.29-3.96-6.23-5.98-8.81l75.27-69.12L452.16,289z"/>
		<path class="st11" d="M486.69,326.19L364.2,355.04c-1.01-3.37-2.26-6.54-3.66-9.49l96.93-50.81L486.69,326.19z"/>
		<path class="st11" d="M531.38,374.34l-0.47,0.48l-163.78-1.75c-0.08-2.99-0.35-5.89-0.8-8.67l127.4-30.61L531.38,374.34z"/>
		<path class="st11" d="M521.71,384.04l-37.16,37.22l-118.89-31.6c0.73-3.62,1.17-7.09,1.37-10.46L521.71,384.04z"/>
		<path class="st11" d="M476.98,428.83l-28.97,29l-86.53-54.09c1.01-2.64,1.88-5.24,2.61-7.77L476.98,428.83z"/>
		<path class="st11" d="M441.66,464.21l-20.69,20.71l-66.16-66.83c0.87-1.64,3.11-6.16,3.85-7.77L441.66,464.21z"/>
		<path class="st10" d="M343.36,368.12c-0.13,7.13-6.05,12.82-13.24,12.69c-2.06-0.04-4-0.55-5.72-1.43
			c-4.25-2.19-7.13-6.65-7.03-11.72c0.07-3.56,1.58-6.76,3.97-9.06c2.39-2.31,5.67-3.69,9.27-3.63
			C337.78,355.09,343.49,360.98,343.36,368.12z"/>
		<path class="st10" d="M241.87,333c0,0-3.39,14.51-17.82,13.15c-5.74-6.84-8.97-10.62-8.97-10.62l16.37-13.28L241.87,333z"/>
		<path class="st10" d="M271.63,363.76l-14.26,14.3c-0.75-1.52-2.21-4.52-4.98-10.29c-1.41-12.85,11.8-11.68,11.8-11.68
			L271.63,363.76z"/>
		<path class="st6" d="M236.84,150.44l-0.86,46.24c-7.54,1.13-14.6,2.44-21.07,3.8c-7.59,1.59-14.41,3.26-20.29,4.85l0.29-15.66
			L236.84,150.44z"/>
		<path class="st5" d="M186.16,197.87l-0.18,9.9c-3.7,1.12-6.85,2.13-9.34,2.97c-4.19,1.42-6.57,2.35-6.85,2.46L186.16,197.87z"/>
		<path class="st11" d="M416.33,490.29l-5.13,5.15l-3.55,3.34l-0.03-0.05l-61.26-67.6c1.37-1.96,3.39-4.99,4.58-6.91L416.33,490.29z
			"/>
		<path class="st12" d="M276.37,274c-11.61,1.83-21.29,5.31-28.04,8.31l-24.64-52.87l19.45-25.08l25.01,14.95L276.37,274z"/>
		<path class="st8" d="M313.66,223.94l-8.37,49.56c-9.49-1.22-18.43-0.95-26.52,0.17c-1.62-10.44-7.53-53.4-7.53-53.4l22.63-17.8
			L313.66,223.94z"/>
		<path class="st12" d="M358.21,230.92l-25.15,50.38c-8.6-3.83-17-6.16-25.05-7.42l7.84-49.35l29.23-16.53L358.21,230.92z"/>
		<polyline class="st10" points="188.68,215.67 188.68,215.65 188.7,215.65 		"/>
		<path class="st9" d="M238.76,204.79l-17.07,21.53l-28.65-11.89c3.27-0.89,6.86-1.82,10.71-2.75
			C213.96,209.21,225.08,206.72,238.76,204.79z"/>
		<path class="st9" d="M290.06,201.21l-19.32,16.59l-24.08-14.26C259.6,202.32,274.38,201.23,290.06,201.21z"/>
		<path class="st9" d="M342.91,205.6l-27.38,15.83l-18.03-20.13C312.53,201.63,326.79,202.82,342.91,205.6z"/>
		<path class="st9" d="M397.42,220.23l-36.35,9.64l-13.22-23.37c12.18,2.2,23.55,4.91,36,8.94
			C388.37,216.9,392.9,218.49,397.42,220.23z"/>
		<path class="st5" d="M138.08,419.98c1.14,0.57,1.67,1.37,2.26,2.05c2.79,3.19,5.96,5.94,9.35,8.46c3.28,2.44,6.78,4.55,10.53,6.17
			c2.59,1.12,5.29,1.98,8.04,2.65c5.09,1.23,10.23,1.34,15.4,0.56c3.89-0.59,7.58-1.84,11.13-3.52c3.58-1.7,6.92-3.76,9.95-6.33
			c2.53-2.15,4.92-4.42,7.09-6.92c3.81-4.39,6.95-9.2,9.64-14.33c0.41-0.79,0.76-1.61,1.12-2.42c0.09-0.2,0.17-0.41,0.06-0.71
			c-0.67,0.15-0.96,0.75-1.23,1.21c-1.22,2.16-3.02,3.88-4.47,5.86c-2.27,3.11-5.01,5.84-7.66,8.62c-2.25,2.35-4.6,4.64-7.3,6.51
			c-0.75,0.52-1.59,0.81-2.38,1.24c-2.08,1.14-4.06,2.45-6.19,3.49c-3.2,1.56-6.51,2.79-10.06,3.26c-3.44,0.45-6.9,0.72-10.36,0.28
			c-3.43-0.44-6.75-1.35-9.95-2.7c-3.1-1.3-6.12-2.75-8.87-4.71c-2.92-2.07-5.72-4.26-8.29-6.79c-2.82-2.77-5.39-5.72-7.78-8.85
			c-0.36-0.47-0.62-0.95-0.66-1.57c-0.53-7.33-1.07-14.66-1.61-21.98c-0.02-0.26,0.01-0.51,0.03-1.04c0.8,1.71,1.58,3.15,2.18,4.66
			c1.31,3.31,3.27,6.23,5.28,9.13c1.58,2.27,3.24,4.48,5.19,6.47c3.86,3.92,8.16,7.22,13.21,9.5c3.01,1.36,6.19,2.02,9.45,2.44
			c2.35,0.3,4.67,0.15,6.99-0.1c2.52-0.28,4.89-1.1,7.25-1.96c3.59-1.31,6.62-3.5,9.54-5.9c3.15-2.58,5.72-5.67,7.98-8.99
			c3.21-4.71,5.65-9.81,7.41-15.24c0.92-2.84,1.82-5.69,2.42-8.61c0.68-3.32,1.04-6.7,1.36-10.08c0.57-6,0.58-11.99-0.18-17.95
			c-0.42-3.32-0.99-6.63-1.79-9.89c-0.66-2.69-1.43-5.36-2.21-8.01c-0.8-2.69-2.01-5.25-3.19-7.8c-1.15-2.48-2.52-4.84-3.91-7.18
			c-1.52-2.57-3.38-4.94-5.4-7.16c-1.32-1.45-2.54-2.99-4.09-4.23c-2.44-1.96-4.78-4.05-7.6-5.48c-4.14-2.1-8.42-3.69-13.12-4.05
			c-1.94-0.15-3.86-0.2-5.78,0.05c-2.27,0.3-4.46,0.92-6.63,1.68c-3.47,1.22-6.52,3.17-9.45,5.31c-1.88,1.37-3.44,3.12-5.06,4.78
			c-1.76,1.81-3.14,3.9-4.56,5.95c-2.61,3.76-4.5,7.9-6.16,12.14c-1.66,4.25-2.72,8.67-3.58,13.14c-0.48,2.5-0.82,5.02-1.06,7.56
			c-0.65,6.88-0.55,13.76-0.04,20.64c2.28,30.47,4.53,60.94,6.8,91.42c0.03,0.4,0.06,0.8,0.08,1.21c0.01,0.22,0.05,0.47-0.21,0.58
			c-0.23,0.09-0.44-0.01-0.61-0.17c-0.78-0.74-1.57-1.46-2.34-2.21c-3.69-3.58-7.37-7.16-11.06-10.74c-0.75-0.73-1-1.62-1.08-2.65
			c-1.06-14.52-2.14-29.04-3.22-43.56c-1.24-16.76-2.54-33.51-3.7-50.27c-0.3-4.37-0.62-8.77-0.33-13.15
			c0.23-3.52,0.53-7.03,1.1-10.52c0.28-1.72,0.61-3.43,1.05-5.11c0.55-2.07,1.34-4.07,2.22-6.02c0.68-1.5,1.3-3.04,2.09-4.49
			c0.97-1.76,2.04-3.47,3.16-5.15c3.27-4.92,7.23-9.2,11.82-12.94c3.52-2.86,7.3-5.32,11.36-7.34c3.01-1.5,6.2-2.54,9.4-3.57
			c5.11-1.64,10.36-2.22,15.67-2.33c2.36-0.05,4.74,0.25,7.1,0.55c2.46,0.32,4.83,0.98,7.24,1.45c1.95,0.38,3.72,1.28,5.57,1.93
			c1.57,0.55,3.01,1.38,4.46,2.18c0.66,0.37,1.34,0.71,2.08,0.94c1.18,0.36,2.11,1.16,3.11,1.83c1.59,1.07,3.14,2.21,4.77,3.22
			c1.43,0.89,2.6,2.18,3.91,3.28c1.95,1.64,3.76,3.45,5.54,5.27c1.66,1.69,2.96,3.69,4.18,5.73c0.4,0.68,0.9,1.29,1.56,1.92
			c0.1-0.8-0.3-1.29-0.57-1.83c-0.6-1.2-1.11-2.44-1.78-3.6c-1.85-3.21-4.16-6.09-6.52-8.94c-2.16-2.61-4.67-4.85-7.34-6.85
			c-3.32-2.48-6.83-4.75-10.74-6.32c-2.95-1.19-5.91-2.36-9-3.13c-2.48-0.62-4.99-1.02-7.56-1.24c-3.28-0.28-6.55-0.4-9.83-0.2
			c-3.73,0.23-7.39,0.93-11.04,1.74c-3.23,0.71-6.3,1.82-9.3,3.11c-2.58,1.11-5.04,2.49-7.47,3.93c-5.57,3.28-10.41,7.43-14.72,12.2
			c-3.43,3.8-6.22,8.04-8.69,12.52c-2.23,4.06-3.73,8.38-5.03,12.79c-1.1,3.73-1.83,7.53-2.02,11.44c-0.11,2.41-0.27,4.82-0.27,7.24
			c0,1.49,0.29,2.94,0.4,4.41c1.75,23.46,3.51,46.91,5.27,70.37c0.6,7.95,1.18,15.91,1.77,23.86c0.04,0.52,0.15,1.05-0.01,1.65
			c-0.66-0.02-0.95-0.54-1.3-0.88c-2.44-2.35-4.77-4.82-7.31-7.07c-2.18-1.93-3.96-4.24-6.29-6c-0.93-0.7-1.21-1.66-1.29-2.8
			c-0.9-12.56-1.85-25.11-2.78-37.67c-1.36-18.36-2.72-36.73-4.12-55.09c-0.1-1.27,0.19-2.17,1.12-3.08c1.39-1.38,2.55-3,3.91-4.42
			c3.12-3.27,6.03-6.72,9.02-10.1c2.64-2.98,5.31-5.92,7.95-8.9c2.04-2.31,3.97-4.72,6.11-6.93c2.58-2.67,4.99-5.49,7.44-8.27
			c2.83-3.22,5.7-6.41,8.54-9.62c1.84-2.08,3.59-4.23,5.52-6.22c1.88-1.92,3.47-4.08,5.31-6.03c0.77-0.81,1.56-1.6,2.37-2.37
			c0.45-0.43,0.99-0.69,1.61-0.89c5.56-1.79,11.29-2.6,17.11-2.76c1.66-0.05,3.32,0.08,4.98,0.16c1.84,0.09,3.66,0.34,5.48,0.59
			c2.4,0.33,4.75,0.94,7.12,1.42c0.61,0.12,0.99,0.59,1.39,1c2.46,2.53,4.9,5.08,7.36,7.61c3.05,3.14,6.18,6.22,9.14,9.44
			c2.51,2.73,5.19,5.29,7.71,8.01c3.74,4.02,7.68,7.85,11.48,11.82c2.01,2.1,4.11,4.11,6.06,6.25c2.83,3.1,5.92,5.95,8.69,9.1
			c0.76,0.87,1.68,1.61,2.48,2.45c1.02,1.07,1.98,2.18,3,3.25c0.32,0.33,0.33,0.7,0.36,1.1c0.86,11.66,1.72,23.32,2.59,34.99
			c1.24,16.67,2.47,33.33,3.73,50c0.08,1.03-0.04,1.86-0.79,2.69c-1.65,1.83-3.28,3.67-5.02,5.41c-1.16,1.17-2.16,2.5-3.32,3.67
			c-2.74,2.76-5.3,5.69-7.95,8.54c-3.44,3.7-6.87,7.41-10.27,11.15c-3.4,3.73-6.9,7.38-10.28,11.13c-2.39,2.66-4.96,5.14-7.24,7.9
			c-1.16,1.41-2.54,2.65-3.81,3.97c-0.97,1-2.27,1.43-3.49,1.97c-2.67,1.19-5.49,1.99-8.35,2.57c-3.22,0.66-6.45,1.22-9.75,1.33
			c-4.55,0.16-9.09,0-13.57-0.81c-4.42-0.79-8.66-2.24-12.79-4.03c-3.99-1.74-7.49-4.18-10.85-6.86c-1.33-1.07-2.3-2.51-3.52-3.69
			c-0.28-0.27-0.32-0.63-0.35-0.99c-0.28-3.75-0.55-7.51-0.82-11.26c-0.01-0.13,0.03-0.27,0.05-0.49c0.84,0.17,1.42,0.74,1.98,1.23
			c3.66,3.22,7.82,5.67,12.16,7.85c4.32,2.17,8.93,3.47,13.61,4.47c2.31,0.49,4.68,0.77,7.07,0.8c2.16,0.03,4.3,0.14,6.46-0.03
			c3.64-0.29,7.19-1.01,10.71-1.97c3.04-0.83,5.95-2,8.8-3.31c4.25-1.95,8.14-4.47,11.85-7.33c3.36-2.59,6.44-5.44,9.2-8.6
			c2.64-3.03,5.16-6.17,7.22-9.67c1.41-2.38,2.83-4.76,4.14-7.2c0.7-1.29,1.23-2.68,1.81-4.04c0.44-1.02,0.83-2.05,1.29-3.21
			c-1.72,2.16-2.7,4.6-4.18,6.74c-1.35,1.95-2.63,3.95-4.06,5.83c-1.27,1.67-2.72,3.21-4.06,4.83c-2.52,3.04-5.31,5.82-8.29,8.37
			c-2.92,2.5-5.9,4.98-9.25,6.88c-3.5,1.98-7.06,3.86-10.84,5.31c-3.38,1.29-6.84,2.13-10.4,2.69c-1.83,0.29-3.64,0.59-5.49,0.64
			c-3.87,0.09-7.74,0.06-11.55-0.69c-3.07-0.6-6.07-1.53-9-2.68c-3.43-1.35-6.71-2.99-9.75-5.07c-2.84-1.95-5.68-3.91-8.01-6.49
			c-0.03-0.03-0.05-0.08-0.09-0.1c-1.82-1-2.06-2.68-2.16-4.55c-0.23-4.34-0.62-8.67-0.94-13
			C138.17,421.24,138.14,420.75,138.08,419.98z"/>
		<path class="st13" d="M210.6,356.81c-0.01,3.17,0.08,6.46-0.12,9.77c-0.16,2.68-0.43,5.34-0.82,7.98
			c-0.35,2.37-0.81,4.74-1.51,7.05c-0.38,1.24-0.55,2.52-0.95,3.76c-1.07,3.36-2.46,6.58-3.95,9.78c-1.62,3.47-3.88,6.52-6.06,9.62
			c-0.67,0.96-1.58,1.7-2.37,2.55c-2.88,3.12-6.29,5.6-10.14,7.35c-4.74,2.15-9.71,3.01-14.96,2.04c-4.18-0.77-8.03-2.3-11.5-4.62
			c-3.34-2.24-6.31-4.94-8.88-8.09c-1.75-2.15-3.37-4.38-4.84-6.71c-0.9-1.44-1.58-3.01-2.37-4.51c-1.51-2.83-2.69-5.81-3.74-8.82
			c-0.88-2.51-1.64-5.08-1.97-7.75c-0.11-0.92-0.58-1.75-0.69-2.71c-0.31-2.57-0.86-5.11-1.15-7.68c-0.27-2.35-0.46-4.72-0.35-7.1
			c0.07-1.47,0.06-2.95,0.09-4.42c0.03-1.12,0-2.24,0.14-3.35c0.42-3.23,0.55-6.5,1.26-9.69c0.93-4.18,2.18-8.27,3.66-12.3
			c1.56-4.23,3.84-8.05,6.24-11.81c1.03-1.62,2.41-2.98,3.62-4.46c1.62-2,3.64-3.57,5.69-5.08c2.77-2.04,5.73-3.75,9.2-4.47
			c1.89-0.39,3.74-0.91,5.68-1.04c0.86-0.06,1.72,0,2.55,0.12c2.69,0.37,5.41,0.5,7.98,1.68c2.28,1.04,4.46,2.18,6.57,3.55
			c4.54,2.95,8.09,6.82,11.15,11.2c2.31,3.3,4.34,6.76,5.94,10.46c0.6,1.39,1.12,2.81,1.62,4.24c0.69,1.98,1.38,3.95,1.96,5.96
			c0.69,2.4,1.16,4.85,1.65,7.3C209.93,349.93,210.24,353.29,210.6,356.81z"/>
		<path class="st5" d="M256.12,409.3c-0.46-2.11-5.96-77.43-5.74-78.5c3.62,3.76,7.16,7.52,10.8,11.17
			c1.67,1.68,3.19,3.51,4.91,5.13c0.66,0.62,0.84,1.32,0.9,2.14c0.55,7.59,1.12,15.19,1.69,22.78c0.51,6.83,1,13.67,1.54,20.5
			c0.08,1-0.11,1.73-0.88,2.48c-1.56,1.53-2.89,3.29-4.43,4.85c-2.61,2.64-4.9,5.59-7.61,8.13
			C256.91,408.35,256.6,408.76,256.12,409.3z"/>
		<path class="st5" d="M97.02,424c-1.34-0.9-2.28-1.86-3.18-2.83c-1.76-1.91-3.79-3.53-5.59-5.4c-1.36-1.41-2.8-2.76-4.23-4.11
			c-0.72-0.68-1.05-1.47-1.12-2.48c-0.98-13.58-2-27.16-3.01-40.73c-0.41-5.54-0.8-11.08-1.26-16.61c-0.09-1.03,0.16-1.79,0.84-2.54
			c2.44-2.67,4.84-5.38,7.24-8.09c1.03-1.17,1.96-2.44,3.13-3.5c0.2-0.18,0.36-0.39,0.73-0.38C92.72,366.13,94.87,394.95,97.02,424z
			"/>
		<path class="st5" d="M141.38,463c0.38,0.24,0.59,0.34,0.75,0.49c2.1,1.97,4.42,3.61,6.93,5.04c3.35,1.91,6.8,3.57,10.51,4.7
			c3.17,0.97,6.36,1.83,9.63,2.35c2.08,0.33,4.17,0.49,6.28,0.64c2.88,0.21,5.75,0.17,8.61-0.06c3.81-0.3,7.56-1.03,11.24-2.04
			c0.22-0.06,0.43-0.15,0.65,0.02c0.13,0.49-0.29,0.72-0.56,0.96c-2.08,1.85-3.67,4.15-5.65,6.08c-2.15,2.09-3.94,4.51-6.09,6.59
			c-2.03,1.96-3.7,4.24-5.71,6.2c-1.22,1.18-2.36,2.43-3.47,3.72c-0.72,0.84-0.76,0.82-1.55,0.06c-2.25-2.16-4.49-4.34-6.74-6.5
			c-2.99-2.88-6.03-5.71-8.94-8.65c-1.92-1.94-4-3.7-5.88-5.66c-2.29-2.39-4.82-4.53-7.12-6.9c-0.71-0.74-1.35-1.55-2.17-2.18
			c-0.24-0.19-0.45-0.43-0.48-0.78C141.49,465.79,141.32,464.51,141.38,463z"/>
		<path class="st5" d="M78.56,406.18c-2.28-1.88-4.15-3.92-6.16-5.82c-2.39-2.28-4.72-4.62-7.11-6.91c-0.53-0.5-0.77-1.03-0.83-1.75
			c-0.54-7.5-1.1-15-1.67-22.5c-0.06-0.77,0.16-1.32,0.69-1.91c3.02-3.35,5.97-6.76,8.97-10.14c0.67-0.75,1.42-1.44,2.17-2.19
			C75.03,356.04,78.69,404.01,78.56,406.18z"/>
		<path class="st5" d="M274.01,389.79c-0.92-12.4-1.83-24.61-2.74-36.93c0.85,0.27,1.31,0.88,1.81,1.39
			c5.12,5.3,10.2,10.65,15.39,15.88c0.41,0.41,0.76,0.87,1.17,1.29c0.6,0.61,0.55,0.93,0.02,1.62c-1.37,1.77-3.07,3.25-4.56,4.91
			c-2.9,3.22-5.83,6.41-8.77,9.59C275.65,388.28,274.88,388.95,274.01,389.79z"/>
		<path class="st5" d="M182.98,261.24c-1.16,0.39-2.32,0.02-3.47-0.04c-2.01-0.12-4.01-0.43-6.04-0.43c-3.28,0-6.56-0.03-9.81,0.46
			c-2.04,0.31-4.08,0.58-6.21,0.88c0.52-1.39,1.56-2.28,2.45-3.23c2.13-2.29,4.1-4.73,6.25-6.99c1.26-1.33,2.41-2.75,3.72-4.18
			c2.4,2.12,4.43,4.54,6.67,6.75c2.21,2.2,4.38,4.44,6.42,6.79L182.98,261.24z"/>
		<path class="st5" d="M59.07,372.61c0.38,5.18,0.77,10.33,1.15,15.48c-0.41,0.12-0.59-0.15-0.83-0.34
			c-2.06-1.72-3.81-3.76-5.75-5.6c-0.45-0.43-0.94-0.83-1.4-1.25c-0.3-0.28-0.37-0.58-0.06-0.93c2.16-2.44,4.24-4.95,6.57-7.23
			C58.81,372.68,58.91,372.67,59.07,372.61z"/>
		<path class="st14" d="M188.91,256.73c0.03,0.02,0.07,0.04,0.09,0.06c0.01,0.01,0,0.05,0,0.07c-0.03-0.05-0.05-0.1-0.08-0.15
			C188.93,256.72,188.91,256.73,188.91,256.73z"/>
	</g>
</g>
</svg>
